<svg id="close_black_24dp_2_" data-name="close_black_24dp (2)" xmlns="http://www.w3.org/2000/svg" width="26.336" height="26.336" viewBox="0 0 26.336 26.336">
  <path id="Path_62191" data-name="Path 62191" d="M0,0H26.336V26.336H0Z" fill="none"/>
  <path id="Path_62192" data-name="Path 62192" d="M19.555,5.739a1.093,1.093,0,0,0-1.547,0l-5.366,5.355L7.276,5.728A1.094,1.094,0,0,0,5.728,7.276l5.366,5.366L5.728,18.008a1.094,1.094,0,0,0,1.547,1.547l5.366-5.366,5.366,5.366a1.094,1.094,0,0,0,1.547-1.547l-5.366-5.366,5.366-5.366A1.1,1.1,0,0,0,19.555,5.739Z" transform="translate(0.526 0.526)" fill="#af6433"/>
</svg>
